<?xml version="1.0" encoding="utf-8"?>
<!-- Generator: Adobe Illustrator 16.0.3, SVG Export Plug-In . SVG Version: 6.00 Build 0)  -->
<!DOCTYPE svg PUBLIC "-//W3C//DTD SVG 1.1//EN" "http://www.w3.org/Graphics/SVG/1.1/DTD/svg11.dtd">
<svg version="1.1" xmlns="http://www.w3.org/2000/svg" xmlns:xlink="http://www.w3.org/1999/xlink" x="0px" y="0px"
	 width="397.655px" height="257.584px" viewBox="0 -1.781 397.655 257.584" enable-background="new 0 -1.781 397.655 257.584"
	 xml:space="preserve">
<g id="svg4903" inkscape:version="1.2.1 (9c6d41e410, 2022-07-14)" sodipodi:docname="oe-logo-with-text-color.svg" xmlns:cc="http://creativecommons.org/ns#" xmlns:rdf="http://www.w3.org/1999/02/22-rdf-syntax-ns#" xmlns:dc="http://purl.org/dc/elements/1.1/" xmlns:sodipodi="http://sodipodi.sourceforge.net/DTD/sodipodi-0.dtd" xmlns:svg="http://www.w3.org/2000/svg" xmlns:inkscape="http://www.inkscape.org/namespaces/inkscape" display="none">
	
		<sodipodi:namedview  inkscape:pagecheckerboard="0" inkscape:window-maximized="1" pagecolor="#ffffff" bordercolor="#666666" borderopacity="1" objecttolerance="10" gridtolerance="10" guidetolerance="10" showgrid="false" fit-margin-top="0" fit-margin-left="0" inkscape:zoom="0.5" inkscape:cx="-68" inkscape:cy="220" showguides="false" id="namedview4905" inkscape:pageopacity="0" inkscape:pageshadow="2" inkscape:window-width="1920" inkscape:window-height="1017" fit-margin-right="0" fit-margin-bottom="0" inkscape:window-x="-8" inkscape:window-y="-8" inkscape:current-layer="layer9" inkscape:showpageshadow="2" inkscape:deskcolor="#d1d1d1" inkscape:document-units="cm">
		</sodipodi:namedview>
	<title  id="title2863">Open Ephys logo without text</title>
	<desc  id="desc2865">Picture generated by PCBNEW</desc>
	
		<image display="inline" overflow="visible" width="281" height="175" xlink:href="../../jonnew-lbr/logo/oe-logo-with-text.png"  transform="matrix(1.4804 0 0 1.4804 -9.8828 -2.8962)">
	</image>
</g>
<g id="Text" display="none">
	
		<text transform="matrix(1 0 0 1 -4.8452 227.7078)" display="inline" font-family="'Miso-Bold'" font-size="127.8548" letter-spacing="-5">open ephys</text>
</g>
<g id="Text-custom">
	<g>
		<path d="M19.191,228.814c-9.634,0-17.472-7.838-17.472-17.472v-25.57c0-9.634,7.838-17.472,17.472-17.472
			c9.633,0,17.471,7.838,17.471,17.472v25.57C36.663,220.976,28.825,228.814,19.191,228.814z M19.191,177.673
			c-4.542,0-8.099,3.558-8.099,8.1v25.57c0,4.542,3.558,8.1,8.099,8.1s8.099-3.558,8.099-8.1v-25.57
			C27.291,181.23,23.733,177.673,19.191,177.673z"/>
		<path d="M2.57,211.343v-25.57c0-9.206,7.416-16.621,16.621-16.621c9.078,0,16.621,7.415,16.621,16.621v25.57
			c0,9.205-7.543,16.621-16.621,16.621C9.986,227.964,2.57,220.548,2.57,211.343z M10.242,185.772v25.57
			c0,4.986,3.963,8.95,8.95,8.95s8.95-3.964,8.95-8.95v-25.57c0-4.986-3.963-8.95-8.95-8.95S10.242,180.786,10.242,185.772z"/>
		<path d="M50.515,254.385c-2.627,0-4.686-2.059-4.686-4.686v-76.201c0-2.628,2.059-4.687,4.686-4.687H63.3
			c9.633,0,17.471,7.838,17.471,17.472v24.548c0,9.634-7.838,17.472-17.471,17.472h-8.099v21.396
			C55.201,252.283,53.099,254.385,50.515,254.385z M63.3,218.93c4.542,0,8.099-3.558,8.099-8.1v-24.548
			c0-4.541-3.558-8.099-8.099-8.099h-8.099v40.746H63.3z"/>
		<path d="M46.679,249.699v-76.201c0-2.174,1.662-3.836,3.835-3.836H63.3c9.078,0,16.621,7.416,16.621,16.621v24.548
			c0,9.206-7.543,16.621-16.621,16.621h-8.95v22.247c0,2.173-1.79,3.835-3.836,3.835C48.341,253.534,46.679,251.872,46.679,249.699z
			 M63.3,177.334h-8.95v42.447h8.95c4.986,0,8.95-3.964,8.95-8.95v-24.548C72.25,181.297,68.287,177.334,63.3,177.334z"/>
		<path d="M105.884,228.795c-2.312,0-4.574-0.444-6.724-1.322c-6.535-2.668-10.757-8.999-10.757-16.13v-25.57
			c0-9.634,7.838-17.472,17.472-17.472c9.633,0,17.471,7.838,17.471,17.472v12.785c0,2.627-2.059,4.686-4.686,4.686H97.775v8.1
			c0,3.341,1.95,6.294,4.968,7.523c1.032,0.42,2.096,0.633,3.165,0.633c2.106,0,4.105-0.84,5.63-2.365
			c0.93-0.929,2.035-1.399,3.287-1.399c1.355,0,2.472,0.458,3.414,1.399c0.91,0.755,1.4,1.877,1.4,3.286
			c0,1.252-0.471,2.357-1.4,3.287C114.956,226.988,110.569,228.795,105.884,228.795z M113.973,193.871v-8.099
			c0-4.542-3.558-8.1-8.099-8.1s-8.099,3.558-8.099,8.1v8.099H113.973z"/>
		<path d="M89.253,211.343v-25.57c0-9.206,7.416-16.621,16.621-16.621c9.205,0,16.621,7.415,16.621,16.621v12.785
			c0,2.173-1.662,3.835-3.835,3.835H96.924v8.95c0,3.58,2.045,6.904,5.498,8.311s7.16,0.64,9.717-1.918
			c0.767-0.767,1.662-1.15,2.685-1.15c1.15,0,2.045,0.384,2.813,1.15c0.767,0.64,1.151,1.534,1.151,2.685
			c0,1.023-0.384,1.918-1.151,2.686c-4.73,4.73-11.89,6.137-18.155,3.58C93.216,224.128,89.253,218.119,89.253,211.343z
			 M96.924,185.772v8.949h17.899v-8.949c0-4.986-3.963-8.95-8.95-8.95S96.924,180.786,96.924,185.772z"/>
		<path d="M161.746,228.814c-2.627,0-4.686-2.059-4.686-4.687v-37.845c0-4.541-3.558-8.099-8.099-8.099h-8.099v45.943
			c0,2.584-2.103,4.687-4.687,4.687c-2.627,0-4.686-2.059-4.686-4.687v-50.63c0-2.628,2.059-4.687,4.686-4.687h12.786
			c9.633,0,17.471,7.838,17.471,17.472v37.845C166.432,226.712,164.329,228.814,161.746,228.814z"/>
		<path d="M132.339,224.128v-50.63c0-2.174,1.662-3.836,3.835-3.836h12.786c9.078,0,16.621,7.416,16.621,16.621v37.845
			c0,2.174-1.79,3.836-3.835,3.836c-2.173,0-3.835-1.662-3.835-3.836v-37.845c0-4.986-3.963-8.949-8.95-8.949h-8.95v46.794
			c0,2.174-1.79,3.836-3.836,3.836C134.001,227.964,132.339,226.302,132.339,224.128z"/>
		<path d="M211.105,228.795c-2.312,0-4.574-0.444-6.725-1.322c-6.535-2.668-10.758-9-10.758-16.13v-25.57
			c0-9.634,7.838-17.472,17.472-17.472s17.472,7.838,17.472,17.472v12.785c0,2.627-2.058,4.686-4.685,4.686h-20.886v8.1
			c0,3.34,1.95,6.293,4.969,7.523c1.031,0.42,2.096,0.633,3.164,0.633c2.106,0,4.105-0.84,5.63-2.365
			c0.93-0.929,2.036-1.399,3.287-1.399c1.354,0,2.471,0.458,3.413,1.399c0.91,0.754,1.4,1.877,1.4,3.286
			c0,1.252-0.471,2.358-1.399,3.287C220.179,226.988,215.791,228.795,211.105,228.795z M219.195,193.871v-8.099
			c0-4.542-3.558-8.1-8.101-8.1c-4.541,0-8.099,3.558-8.099,8.1v8.099H219.195z"/>
		<path d="M194.474,211.343v-25.57c0-9.206,7.416-16.621,16.621-16.621c9.207,0,16.621,7.415,16.621,16.621v12.785
			c0,2.173-1.662,3.835-3.834,3.835h-21.736v8.95c0,3.58,2.047,6.904,5.498,8.311s7.16,0.64,9.717-1.918
			c0.768-0.767,1.662-1.15,2.686-1.15c1.15,0,2.045,0.384,2.813,1.15c0.768,0.64,1.15,1.534,1.15,2.685
			c0,1.023-0.383,1.918-1.15,2.686c-4.73,4.73-11.891,6.137-18.156,3.58C198.438,224.128,194.474,218.119,194.474,211.343z
			 M202.146,185.772v8.949h17.9v-8.949c0-4.986-3.965-8.95-8.951-8.95S202.146,180.786,202.146,185.772z"/>
		<path d="M241.397,254.385c-2.628,0-4.687-2.059-4.687-4.686v-76.201c0-2.628,2.059-4.687,4.687-4.687h12.785
			c9.634,0,17.472,7.838,17.472,17.472v24.548c0,9.634-7.838,17.472-17.472,17.472h-8.099v21.396
			C246.084,252.283,243.981,254.385,241.397,254.385z M254.183,218.93c4.541,0,8.099-3.558,8.099-8.1v-24.548
			c0-4.541-3.558-8.099-8.099-8.099h-8.099v40.746H254.183z"/>
		<path d="M237.562,249.699v-76.201c0-2.174,1.662-3.836,3.836-3.836h12.785c9.078,0,16.621,7.416,16.621,16.621v24.548
			c0,9.206-7.543,16.621-16.621,16.621h-8.949v22.247c0,2.173-1.791,3.835-3.836,3.835
			C239.224,253.534,237.562,251.872,237.562,249.699z M254.183,177.334h-8.949v42.447h8.949c4.986,0,8.949-3.964,8.949-8.95v-24.548
			C263.132,181.297,259.169,177.334,254.183,177.334z"/>
		<path d="M311.075,228.814c-2.584,0-4.687-2.103-4.687-4.687v-37.845c0-4.541-3.558-8.099-8.099-8.099h-8.099v45.943
			c0,2.628-2.059,4.687-4.687,4.687c-2.584,0-4.687-2.103-4.687-4.687v-76.712c0-2.584,2.103-4.687,4.687-4.687
			c2.628,0,4.687,2.059,4.687,4.687v21.396h8.099c9.634,0,17.472,7.838,17.472,17.472v37.845
			C315.762,226.756,313.703,228.814,311.075,228.814z"/>
		<path d="M281.669,224.128v-76.712c0-2.174,1.789-3.836,3.836-3.836c2.174,0,3.836,1.662,3.836,3.836v22.246h8.949
			c9.205,0,16.621,7.416,16.621,16.621v37.845c0,2.174-1.662,3.836-3.836,3.836c-2.045,0-3.836-1.662-3.836-3.836v-37.845
			c0-4.986-3.963-8.949-8.949-8.949h-8.949v46.794c0,2.174-1.662,3.836-3.836,3.836
			C283.458,227.964,281.669,226.302,281.669,224.128z"/>
		<path d="M323.733,254.385c-2.628,0-4.687-2.059-4.687-4.686c0-2.628,2.059-4.687,4.687-4.687c3.688,0,6.73-2.269,7.75-5.779
			l4.53-15.105l-14.886-49.746c-0.374-1.197-0.256-2.479,0.335-3.598c0.589-1.117,1.578-1.94,2.785-2.316
			c0.437-0.111,0.836-0.16,1.234-0.16c2.073,0,3.904,1.31,4.556,3.259l10.833,36.305l10.942-36.28
			c0.513-1.923,2.389-3.283,4.556-3.283c0.403,0,0.806,0.049,1.195,0.146c1.254,0.391,2.242,1.213,2.831,2.33
			c0.592,1.12,0.709,2.401,0.331,3.607l-15.339,51.131l-4.858,16.363c-1.175,3.784-3.301,6.813-6.323,9.012
			C331.077,253.21,327.552,254.385,323.733,254.385z"/>
		<path d="M319.897,249.699c0-2.174,1.662-3.836,3.836-3.836c3.963,0,7.416-2.43,8.566-6.393l4.602-15.343l-14.959-49.99
			c-0.639-2.046,0.512-4.22,2.559-4.858c2.045-0.512,4.09,0.639,4.73,2.557l11.635,38.995l11.762-38.995
			c0.512-1.918,2.686-3.068,4.73-2.557c2.045,0.639,3.197,2.813,2.557,4.858l-15.342,51.141l-4.859,16.365
			c-1.15,3.708-3.195,6.521-6.008,8.566c-2.941,2.174-6.266,3.324-9.973,3.324C321.56,253.534,319.897,251.872,319.897,249.699z"/>
		<path d="M379.254,228.844c-0.809,0-1.632-0.056-2.449-0.166c-5.316-0.954-9.454-3.794-12.002-8.217
			c-1.282-2.408-0.511-5.216,1.743-6.417c0.757-0.403,1.591-0.616,2.413-0.616c1.701,0,3.188,0.887,3.98,2.373
			c1.309,2.017,3.04,3.189,5.256,3.522c0.412,0.064,0.817,0.098,1.21,0.098c1.766,0,3.408-0.654,4.882-1.943
			c1.747-1.631,2.496-3.533,2.271-5.795c-0.118-2.344-1.13-4.138-3.096-5.527l-11.893-8.439c-4.002-2.71-6.45-7.021-6.877-12.129
			c-0.397-4.92,1.522-9.65,5.269-12.981c3.012-2.787,6.939-4.328,11.048-4.328c0.762,0,1.533,0.053,2.293,0.158
			c5.037,0.979,9.144,3.8,11.61,7.951c1.288,2.417,0.516,5.225-1.739,6.427c-0.756,0.403-1.59,0.616-2.412,0.616
			c-1.7,0-3.188-0.887-3.979-2.373c-1.006-1.786-2.697-2.923-4.88-3.268c-0.409-0.064-0.815-0.098-1.206-0.098
			c-1.685,0-3.19,0.605-4.475,1.799c-1.571,1.458-2.277,3.247-2.159,5.469c0.109,2.108,1.104,3.824,2.957,5.099l11.896,8.313
			c4.193,3.112,6.61,7.481,7.009,12.65c0.396,5.153-1.521,9.896-5.396,13.357C387.505,227.293,383.599,228.844,379.254,228.844z"/>
		<path d="M387.403,211.598c-0.127-2.558-1.279-4.603-3.451-6.137l-11.891-8.438c-3.965-2.686-6.137-6.904-6.521-11.507
			c-0.383-4.73,1.535-9.206,4.986-12.274c3.453-3.196,8.055-4.603,12.658-3.963c4.602,0.895,8.566,3.452,10.996,7.543
			c1.021,1.918,0.51,4.22-1.408,5.242c-1.916,1.022-4.219,0.512-5.24-1.406c-1.152-2.046-3.07-3.324-5.498-3.708
			c-2.43-0.384-4.604,0.256-6.393,1.918c-1.791,1.662-2.559,3.708-2.43,6.137c0.127,2.43,1.279,4.347,3.324,5.754l11.891,8.31
			c3.963,2.941,6.264,7.032,6.648,12.019c0.383,4.986-1.535,9.461-5.115,12.657c-3.58,3.452-8.311,4.731-13.041,4.092
			c-4.986-0.896-8.949-3.58-11.379-7.799c-1.021-1.918-0.512-4.22,1.406-5.242s4.221-0.512,5.242,1.406
			c1.406,2.174,3.324,3.58,5.881,3.964c2.43,0.383,4.73-0.256,6.777-2.046C386.765,216.329,387.659,214.155,387.403,211.598z"/>
	</g>
</g>
<g id="Layer_2">
	
		<line fill="none" stroke="#FBD026" stroke-width="13" stroke-linecap="round" stroke-miterlimit="10" x1="207.115" y1="6.207" x2="248.115" y2="107.541"/>
	
		<line fill="none" stroke="#EA6A3F" stroke-width="13" stroke-linecap="round" stroke-miterlimit="10" x1="248.115" y1="107.541" x2="153.116" y2="37.707"/>
	
		<line fill="none" stroke="#2FB6DF" stroke-width="13" stroke-linecap="round" stroke-miterlimit="10" x1="153.116" y1="37.707" x2="235.199" y2="151.707"/>
	
		<line fill="none" stroke="#B6B6B7" stroke-width="13" stroke-linecap="round" stroke-miterlimit="10" x1="235.199" y1="151.707" x2="93.449" y2="92.957"/>
	
		<line fill="none" stroke="#D6AACD" stroke-width="13" stroke-linecap="round" stroke-miterlimit="10" x1="93.449" y1="92.957" x2="153.116" y2="37.707"/>
	
		<line fill="none" stroke="#2FB6DF" stroke-width="13" stroke-linecap="round" stroke-miterlimit="10" x1="235.199" y1="151.707" x2="207.115" y2="6.207"/>
	
		<line fill="none" stroke="#2FB6DF" stroke-width="13" stroke-linecap="round" stroke-miterlimit="10" x1="248.115" y1="107.541" x2="235.199" y2="151.707"/>
	
		<line fill="none" stroke="#B6B6B7" stroke-width="13" stroke-linecap="round" stroke-miterlimit="10" x1="248.115" y1="107.541" x2="93.449" y2="92.957"/>
</g>
</svg>
